<svg width="26" height="120" viewBox="0 0 26 120" fill="none" xmlns="http://www.w3.org/2000/svg">
<path d="M25.1667 62C25.1667 63.4728 23.9728 64.6667 22.5 64.6667C21.0272 64.6667 19.8333 63.4728 19.8333 62C19.8333 60.5272 21.0272 59.3333 22.5 59.3333C23.9728 59.3333 25.1667 60.5272 25.1667 62ZM5.66667 3C5.66667 4.47276 4.47276 5.66667 3 5.66667C1.52724 5.66667 0.333333 4.47276 0.333333 3C0.333333 1.52724 1.52724 0.333333 3 0.333333C4.47276 0.333333 5.66667 1.52724 5.66667 3ZM22.5 62V62.5C19.6237 62.5 17.4957 61.5287 15.9747 59.7945C14.4722 58.0816 13.604 55.6721 13.1243 52.8655C12.1667 47.2622 12.7215 39.8155 13.1885 32.4683C13.6586 25.0727 14.0401 17.7762 12.8015 12.3296C12.184 9.61429 11.1747 7.41312 9.62011 5.8926C8.07838 4.38464 5.9532 3.5 3 3.5V3V2.5C6.1718 2.5 8.56225 3.45911 10.3193 5.17771C12.0636 6.88375 13.1363 9.29196 13.7766 12.1079C15.0537 17.7238 14.6539 25.1773 14.1865 32.5317C13.716 39.9345 13.177 47.2378 14.11 52.697C14.5757 55.4216 15.3989 57.6215 16.7265 59.1351C18.0355 60.6276 19.8763 61.5 22.5 61.5V62Z" fill="#020008"/>
<path d="M25.1667 62C25.1667 60.5272 23.9728 59.3333 22.5 59.3333C21.0272 59.3333 19.8333 60.5272 19.8333 62C19.8333 63.4728 21.0272 64.6667 22.5 64.6667C23.9728 64.6667 25.1667 63.4728 25.1667 62ZM5.66667 117C5.66667 115.527 4.47276 114.333 3 114.333C1.52724 114.333 0.333333 115.527 0.333333 117C0.333333 118.473 1.52724 119.667 3 119.667C4.47276 119.667 5.66667 118.473 5.66667 117ZM22.5 62V61.5C19.6351 61.5 17.3728 62.3995 15.6057 63.9918C13.8501 65.5738 12.6158 67.8099 11.7368 70.435C9.98282 75.6732 9.5937 82.6215 9.43763 89.4886C9.28063 96.3966 9.35866 103.217 8.57607 108.331C8.18477 110.888 7.58628 112.952 6.67792 114.367C5.78857 115.751 4.61545 116.5 3 116.5V117V117.5C5.00955 117.5 6.47705 116.53 7.51935 114.907C8.54262 113.314 9.16679 111.081 9.56456 108.482C10.3601 103.283 10.2819 96.3534 10.4374 89.5114C10.5938 82.6285 10.9859 75.8268 12.6851 70.7525C13.5326 68.2213 14.6928 66.1606 16.2751 64.7347C17.846 63.3192 19.8649 62.5 22.5 62.5V62Z" fill="#020008"/>
</svg>
