<svg width="47" height="120" viewBox="0 0 47 120" fill="none" xmlns="http://www.w3.org/2000/svg">
<path d="M0.333333 62C0.333333 63.4728 1.52724 64.6667 3 64.6667C4.47276 64.6667 5.66667 63.4728 5.66667 62C5.66667 60.5272 4.47276 59.3333 3 59.3333C1.52724 59.3333 0.333333 60.5272 0.333333 62ZM40.8333 3C40.8333 4.47276 42.0272 5.66667 43.5 5.66667C44.9728 5.66667 46.1667 4.47276 46.1667 3C46.1667 1.52724 44.9728 0.333333 43.5 0.333333C42.0272 0.333333 40.8333 1.52724 40.8333 3ZM3 62V62.5C7.07952 62.5 10.2744 61.5587 12.7901 59.8808C15.3038 58.2044 17.1005 55.8186 18.429 52.9941C21.0725 47.3738 21.9064 39.9047 22.8088 32.561C23.7178 25.1635 24.6963 17.8867 27.5596 12.4518C28.9839 9.74819 30.8665 7.51908 33.4268 5.96238C35.9871 4.40561 39.2603 3.5 43.5 3.5V3V2.5C39.1147 2.5 35.6535 3.43814 32.9072 5.10793C30.1608 6.77779 28.1645 9.15806 26.6748 11.9857C23.71 17.6133 22.7197 25.0865 21.8162 32.439C20.9061 39.8453 20.0838 47.1262 17.5241 52.5684C16.2511 55.2751 14.5595 57.4988 12.2353 59.0489C9.91313 60.5976 6.92048 61.5 3 61.5V62Z" fill="#020008"/>
<path d="M0.333333 62C0.333333 60.5272 1.52724 59.3333 3 59.3333C4.47276 59.3333 5.66667 60.5272 5.66667 62C5.66667 63.4728 4.47276 64.6667 3 64.6667C1.52724 64.6667 0.333333 63.4728 0.333333 62ZM40.8333 117C40.8333 115.527 42.0272 114.333 43.5 114.333C44.9728 114.333 46.1667 115.527 46.1667 117C46.1667 118.473 44.9728 119.667 43.5 119.667C42.0272 119.667 40.8333 118.473 40.8333 117ZM3 62V61.5C7.07307 61.5 10.2629 62.3758 12.7767 63.9387C15.2905 65.5016 17.0909 67.7283 18.423 70.3685C21.0714 75.6178 21.9063 82.5922 22.8082 89.4347C23.7175 96.3326 24.695 103.104 27.5525 108.16C28.9731 110.674 30.8525 112.75 33.4135 114.202C35.9764 115.654 39.2545 116.5 43.5 116.5V117V117.5C39.1205 117.5 35.6642 116.627 32.9204 115.072C30.1749 113.516 28.1753 111.295 26.6819 108.652C23.7113 103.396 22.72 96.4174 21.8168 89.5653C20.9062 82.6578 20.0848 75.8822 17.5302 70.819C16.2607 68.3029 14.5727 66.2328 12.2487 64.7879C9.92459 63.343 6.92693 62.5 3 62.5V62Z" fill="#020008"/>
</svg>
