<svg width="56" height="6" viewBox="0 0 56 6" fill="none" xmlns="http://www.w3.org/2000/svg">
<path d="M3 0.333335C1.52724 0.333336 0.333332 1.52724 0.333332 3C0.333332 4.47276 1.52724 5.66667 3 5.66667C4.47276 5.66667 5.66667 4.47276 5.66667 3C5.66667 1.52724 4.47276 0.333335 3 0.333335ZM53 0.333333C51.5272 0.333333 50.3333 1.52724 50.3333 3C50.3333 4.47276 51.5272 5.66667 53 5.66667C54.4728 5.66667 55.6667 4.47276 55.6667 3C55.6667 1.52724 54.4728 0.333333 53 0.333333ZM3 3L3 3.5L53 3.5L53 3L53 2.5L3 2.5L3 3Z" fill="#020008"/>
</svg>
