<svg width="66" height="6" viewBox="0 0 66 6" fill="none" xmlns="http://www.w3.org/2000/svg">
<path d="M0.333333 2.9999C0.333333 4.47266 1.52724 5.66656 3 5.66656C4.47276 5.66656 5.66667 4.47266 5.66667 2.9999C5.66667 1.52714 4.47276 0.333229 3 0.333229C1.52724 0.333229 0.333333 1.52714 0.333333 2.9999ZM59.8333 2.99991C59.8333 4.47267 61.0272 5.66658 62.5 5.66658C63.9728 5.66658 65.1667 4.47267 65.1667 2.99991C65.1667 1.52715 63.9728 0.333244 62.5 0.333244C61.0272 0.333244 59.8333 1.52715 59.8333 2.99991ZM3 2.9999L3 3.4999C32.6005 3.49993 37.9824 3.49988 62.5 3.49991V2.99991V2.49991C37.9824 2.49988 32.6005 2.49993 3 2.4999L3 2.9999Z" fill="#01123D"/>
</svg>
