<svg width="94" height="6" viewBox="0 0 94 6" fill="none" xmlns="http://www.w3.org/2000/svg">
<path d="M0.333333 2.9999C0.333333 4.47266 1.52724 5.66656 3 5.66656C4.47276 5.66656 5.66667 4.47266 5.66667 2.9999C5.66667 1.52714 4.47276 0.333229 3 0.333229C1.52724 0.333229 0.333333 1.52714 0.333333 2.9999ZM87.8333 2.99991C87.8333 4.47267 89.0272 5.66658 90.5 5.66658C91.9728 5.66658 93.1667 4.47267 93.1667 2.99991C93.1667 1.52715 91.9728 0.333244 90.5 0.333244C89.0272 0.333244 87.8333 1.52715 87.8333 2.99991ZM3 2.9999L3 3.4999C46.5302 3.49993 54.4447 3.49988 90.5 3.49991V2.99991V2.49991C54.4447 2.49988 46.5302 2.49993 3 2.4999L3 2.9999Z" fill="#01123D"/>
</svg>
