<svg width="51" height="133" viewBox="0 0 51 133" fill="none" xmlns="http://www.w3.org/2000/svg">
<path d="M0 4C-1.93129e-07 6.20914 1.79086 8 4 8C6.20914 8 8 6.20914 8 4C8 1.79087 6.20914 4.24624e-06 4 4.05312e-06C1.79086 3.85999e-06 1.93129e-07 1.79086 0 4ZM8.31183e-08 128.5C-1.10011e-07 130.709 1.79086 132.5 4 132.5C6.20914 132.5 8 130.709 8 128.5C8 126.291 6.20914 124.5 4 124.5C1.79086 124.5 2.76247e-07 126.291 8.31183e-08 128.5ZM49.5 4L50.25 4L50.25 3.25L49.5 3.25L49.5 4ZM49.5 128.5L49.5 129.25L50.25 129.25L50.25 128.5L49.5 128.5ZM4 4L4 4.75L49.5 4.75L49.5 4L49.5 3.25L4 3.25L4 4ZM49.5 4L48.75 4L48.75 128.5L49.5 128.5L50.25 128.5L50.25 4L49.5 4ZM49.5 128.5L49.5 127.75L4 127.75L4 128.5L4 129.25L49.5 129.25L49.5 128.5Z" fill="white"/>
</svg>
