<svg width="6" height="63" viewBox="0 0 6 63" fill="none" xmlns="http://www.w3.org/2000/svg">
<path d="M3 0.333333C1.52724 0.333333 0.333333 1.52724 0.333333 3C0.333333 4.47276 1.52724 5.66667 3 5.66667C4.47276 5.66667 5.66667 4.47276 5.66667 3C5.66667 1.52724 4.47276 0.333333 3 0.333333ZM3 57.3333C1.52724 57.3333 0.333336 58.5272 0.333336 60C0.333336 61.4728 1.52724 62.6667 3 62.6667C4.47276 62.6667 5.66667 61.4728 5.66667 60C5.66667 58.5272 4.47276 57.3333 3 57.3333ZM3 22.6909L2.5 22.6909L2.5 22.6918L3 22.6909ZM3.03468 42.3818L3.53468 42.3828L3.53468 42.3809L3.03468 42.3818ZM3 3L2.5 3L2.5 22.6909L3 22.6909L3.5 22.6909L3.5 3L3 3ZM3 22.6909L2.5 22.6918L2.53468 42.3827L3.03468 42.3818L3.53468 42.3809L3.5 22.69L3 22.6909ZM3.03468 42.3818L2.53468 42.3808L2.5 59.999L3 60L3.5 60.001L3.53468 42.3828L3.03468 42.3818Z" fill="#020008"/>
</svg>
