<svg width="23" height="244" viewBox="0 0 23 244" fill="none" xmlns="http://www.w3.org/2000/svg">
<path d="M0.333333 3C0.333333 4.47276 1.52724 5.66667 3 5.66667C4.47276 5.66667 5.66667 4.47276 5.66667 3C5.66667 1.52724 4.47276 0.333333 3 0.333333C1.52724 0.333333 0.333333 1.52724 0.333333 3ZM0.333333 241C0.333333 242.473 1.52724 243.667 3 243.667C4.47276 243.667 5.66667 242.473 5.66667 241C5.66667 239.527 4.47276 238.333 3 238.333C1.52724 238.333 0.333333 239.527 0.333333 241ZM22.5 3H23V2.5H22.5V3ZM22.5 241V241.5H23V241H22.5ZM3 3V3.5H22.5V3V2.5H3V3ZM22.5 3H22V241H22.5H23V3H22.5ZM22.5 241V240.5H3V241V241.5H22.5V241Z" fill="black"/>
</svg>
