<svg width="18" height="18" viewBox="0 0 18 18" fill="none" xmlns="http://www.w3.org/2000/svg">
<path d="M5.49984 0.666748H12.4998C15.1665 0.666748 17.3332 2.83341 17.3332 5.50008V12.5001C17.3332 13.782 16.8239 15.0113 15.9175 15.9178C15.0111 16.8242 13.7817 17.3334 12.4998 17.3334H5.49984C2.83317 17.3334 0.666504 15.1667 0.666504 12.5001V5.50008C0.666504 4.2182 1.17573 2.98882 2.08215 2.0824C2.98858 1.17597 4.21796 0.666748 5.49984 0.666748ZM5.33317 2.33341C4.53752 2.33341 3.77446 2.64949 3.21185 3.21209C2.64924 3.7747 2.33317 4.53777 2.33317 5.33341V12.6667C2.33317 14.3251 3.67484 15.6667 5.33317 15.6667H12.6665C13.4622 15.6667 14.2252 15.3507 14.7878 14.7881C15.3504 14.2255 15.6665 13.4624 15.6665 12.6667V5.33341C15.6665 3.67508 14.3248 2.33341 12.6665 2.33341H5.33317ZM13.3748 3.58341C13.6511 3.58341 13.9161 3.69316 14.1114 3.88851C14.3068 4.08386 14.4165 4.34881 14.4165 4.62508C14.4165 4.90135 14.3068 5.1663 14.1114 5.36165C13.9161 5.557 13.6511 5.66675 13.3748 5.66675C13.0986 5.66675 12.8336 5.557 12.6383 5.36165C12.4429 5.1663 12.3332 4.90135 12.3332 4.62508C12.3332 4.34881 12.4429 4.08386 12.6383 3.88851C12.8336 3.69316 13.0986 3.58341 13.3748 3.58341ZM8.99984 4.83341C10.1049 4.83341 11.1647 5.2724 11.9461 6.0538C12.7275 6.8352 13.1665 7.89501 13.1665 9.00008C13.1665 10.1052 12.7275 11.165 11.9461 11.9464C11.1647 12.7278 10.1049 13.1667 8.99984 13.1667C7.89477 13.1667 6.83496 12.7278 6.05356 11.9464C5.27216 11.165 4.83317 10.1052 4.83317 9.00008C4.83317 7.89501 5.27216 6.8352 6.05356 6.0538C6.83496 5.2724 7.89477 4.83341 8.99984 4.83341ZM8.99984 6.50008C8.3368 6.50008 7.70091 6.76347 7.23207 7.23231C6.76323 7.70115 6.49984 8.33704 6.49984 9.00008C6.49984 9.66312 6.76323 10.299 7.23207 10.7678C7.70091 11.2367 8.3368 11.5001 8.99984 11.5001C9.66288 11.5001 10.2988 11.2367 10.7676 10.7678C11.2364 10.299 11.4998 9.66312 11.4998 9.00008C11.4998 8.33704 11.2364 7.70115 10.7676 7.23231C10.2988 6.76347 9.66288 6.50008 8.99984 6.50008Z" fill="#01123D"/>
</svg>
