<svg width="66" height="284" viewBox="0 0 66 284" fill="none" xmlns="http://www.w3.org/2000/svg">
<path d="M65.0303 278.53C65.3232 278.237 65.3232 277.763 65.0303 277.47L60.2574 272.697C59.9645 272.404 59.4896 272.404 59.1967 272.697C58.9038 272.99 58.9038 273.464 59.1967 273.757L63.4393 278L59.1967 282.243C58.9038 282.536 58.9038 283.01 59.1967 283.303C59.4896 283.596 59.9645 283.596 60.2574 283.303L65.0303 278.53ZM1 278L0.25 278L0.25 278.75L1 278.75L1 278ZM64.5 278L64.5 277.25L1 277.25L1 278L1 278.75L64.5 278.75L64.5 278ZM1 278L1.75 278L1.75002 -3.04848e-05L1.00002 -3.05176e-05L0.250015 -3.05504e-05L0.25 278L1 278Z" fill="#020008"/>
</svg>
